<svg width="79" height="15" viewBox="0 0 79 15" fill="none" xmlns="http://www.w3.org/2000/svg">
<path d="M13.2 11.5L14.48 14.02H11.68L10.4 11.5L7.34 5.52L4.3 11.5L3.02 14.02H0.22L1.48 11.5L7.34 -9.53674e-07L13.2 11.5Z" fill="#0066FF"/>
<path d="M22.507 2.5C20.007 2.5 17.987 4.52 17.987 7C17.987 9.5 20.007 11.52 22.507 11.52H29.507V14.02H22.507C18.627 14.02 15.507 10.88 15.507 7C15.507 3.14 18.627 -9.53674e-07 22.507 -9.53674e-07H29.507V2.5H22.507ZM43.7078 11.5L44.9878 14.02H42.1878L40.9078 11.5L37.8478 5.52L34.8078 11.5L33.5278 14.02H30.7278L31.9878 11.5L37.8478 -9.53674e-07L43.7078 11.5ZM51.257 2.5C48.757 2.5 46.737 4.52 46.737 7C46.737 9.5 48.757 11.52 51.257 11.52H58.257V14.02H51.257C47.377 14.02 44.257 10.88 44.257 7C44.257 3.14 47.377 -9.53674e-07 51.257 -9.53674e-07H58.257V2.5H51.257ZM62.7378 14H60.2578V0.0199988H62.7378V14ZM76.95 11.5L78.23 14.02H75.43L74.15 11.5L71.09 5.52L68.05 11.5L66.77 14.02H63.97L65.23 11.5L71.09 -9.53674e-07L76.95 11.5Z" fill="white"/>
</svg>
